# xmcd
#
# Track frame offsets: 
#        182
#        10237
#        26025
#        37077
#        54192
#        65627
#        81540
#        96297
#        109445
#        125645
#        139800
#        158277
#        171170
#
# Disc length: 2507 seconds
#
# Revision: 2
# Processed by: cddbd v1.5.2PL0 Copyright (c) Steve Scherf et al.
# Submitted via: ExactAudioCopy v0.99pb5
#
DISCID=b309c90d
DTITLE=Dennis Parker - The Missing Peace
DYEAR=1993
DGENRE=Christian Country
TTITLE0=I Feel Like Traveling On
TTITLE1=The Missing Peace
TTITLE2=Just Over In The Gloryland
TTITLE3=How Great Thou Art
TTITLE4=I Love To Tell The Story
TTITLE5=Where No One Stands Alone
TTITLE6=Life's Railway To Heaven
TTITLE7=Gonna Be Movin'
TTITLE8=Nearer My God To Thee
TTITLE9=I Will Trade The Old Cross For A Crown
TTITLE10=If That Isn't Love
TTITLE11=Are You Washed in the Blood
TTITLE12=Too Much To Gain To Lose
EXTD=
EXTT0=
EXTT1=
EXTT2=
EXTT3=
EXTT4=
EXTT5=
EXTT6=
EXTT7=
EXTT8=
EXTT9=
EXTT10=
EXTT11=
EXTT12=
PLAYORDER=
